HIERARCHY
ROOT Hips
{
	OFFSET 0.053599 88.859886 3.107447
	CHANNELS 6 Xposition Yposition Zposition Zrotation Yrotation Xrotation 
	JOINT Spine
	{
		OFFSET -0.000000 8.814246 -2.080107
		CHANNELS 3 Zrotation Yrotation Xrotation
		JOINT Spine1
		{
			OFFSET 0.000000 8.844141 0.000000
			CHANNELS 3 Zrotation Yrotation Xrotation
			JOINT Spine2
			{
				OFFSET -0.000000 11.682268 0.000000
				CHANNELS 3 Zrotation Yrotation Xrotation
				JOINT Spine3
				{
					OFFSET 0.000000 11.746700 0.000000
					CHANNELS 3 Zrotation Yrotation Xrotation
					JOINT Neck
					{
						OFFSET -0.000000 17.658264 -0.000000
						CHANNELS 3 Zrotation Yrotation Xrotation
						JOINT Neck1
						{
							OFFSET -0.000000 5.101515 -0.000000
							CHANNELS 3 Zrotation Yrotation Xrotation
							JOINT Head
							{
								OFFSET 0.000000 5.101515 0.000000
								CHANNELS 3 Zrotation Yrotation Xrotation
								JOINT HeadEnd
								{
									OFFSET 0.000000 11.655085 0.000000
									CHANNELS 3 Zrotation Yrotation Xrotation
									End Site
									{
										OFFSET 0.000000 0.000000 0.000000
									}
								}
							}
						}
					}
					JOINT RightShoulder
					{
						OFFSET -2.625389 11.175210 0.000000
						CHANNELS 3 Zrotation Yrotation Xrotation
						JOINT RightArm
						{
							OFFSET -0.000000 10.434715 -0.000000
							CHANNELS 3 Zrotation Yrotation Xrotation
							JOINT RightForeArm
							{
								OFFSET -0.000000 29.628420 0.000000
								CHANNELS 3 Zrotation Yrotation Xrotation
								JOINT RightHand
								{
									OFFSET -0.000000 22.857611 0.000000
									CHANNELS 3 Zrotation Yrotation Xrotation
									JOINT RightHandThumb1
									{
										OFFSET -2.867323 3.959563 2.944291
										CHANNELS 3 Zrotation Yrotation Xrotation
										JOINT RightHandThumb2
										{
											OFFSET 0.000000 3.350399 0.000000
											CHANNELS 3 Zrotation Yrotation Xrotation
											JOINT RightHandThumb3
											{
												OFFSET 0.000000 3.756509 -0.000000
												CHANNELS 3 Zrotation Yrotation Xrotation
												JOINT RightHandThumb4
												{
													OFFSET 0.000000 3.147345 0.000000
													CHANNELS 3 Zrotation Yrotation Xrotation
													End Site
													{
														OFFSET 0.000000 0.000000 0.000000
													}
												}
											}
										}
									}
									JOINT RightHandIndex1
									{
										OFFSET -0.086752 10.030893 2.345280
										CHANNELS 3 Zrotation Yrotation Xrotation
										JOINT RightHandIndex2
										{
											OFFSET -0.000000 4.061090 0.000000
											CHANNELS 3 Zrotation Yrotation Xrotation
											JOINT RightHandIndex3
											{
												OFFSET -0.000000 3.248873 0.000000
												CHANNELS 3 Zrotation Yrotation Xrotation
												JOINT RightHandIndex4
												{
													OFFSET 0.000000 2.639709 -0.000000
													CHANNELS 3 Zrotation Yrotation Xrotation
													End Site
													{
														OFFSET 0.000000 0.000000 0.000000
													}
												}
											}
										}
									}
									JOINT RightHandMiddle1
									{
										OFFSET 0.104102 9.502952 0.006768
										CHANNELS 3 Zrotation Yrotation Xrotation
										JOINT RightHandMiddle2
										{
											OFFSET 0.000000 4.568727 0.000000
											CHANNELS 3 Zrotation Yrotation Xrotation
											JOINT RightHandMiddle3
											{
												OFFSET 0.000000 3.654981 -0.000000
												CHANNELS 3 Zrotation Yrotation Xrotation
												JOINT RightHandMiddle4
												{
													OFFSET -0.000000 2.741236 -0.000000
													CHANNELS 3 Zrotation Yrotation Xrotation
													End Site
													{
														OFFSET 0.000000 0.000000 0.000000
													}
												}
											}
										}
									}
									JOINT RightHandRing1
									{
										OFFSET 0.086752 8.921708 -2.267442
										CHANNELS 3 Zrotation Yrotation Xrotation
										JOINT RightHandRing2
										{
											OFFSET -0.000000 4.061090 0.000000
											CHANNELS 3 Zrotation Yrotation Xrotation
											JOINT RightHandRing3
											{
												OFFSET 0.000000 3.654981 -0.000000
												CHANNELS 3 Zrotation Yrotation Xrotation
												JOINT RightHandRing4
												{
													OFFSET 0.000000 2.741236 -0.000000
													CHANNELS 3 Zrotation Yrotation Xrotation
													End Site
													{
														OFFSET 0.000000 0.000000 0.000000
													}
												}
											}
										}
									}
									JOINT RightHandPinky1
									{
										OFFSET -0.173504 7.976997 -4.467199
										CHANNELS 3 Zrotation Yrotation Xrotation
										JOINT RightHandPinky2
										{
											OFFSET 0.000000 3.350399 -0.000000
											CHANNELS 3 Zrotation Yrotation Xrotation
											JOINT RightHandPinky3
											{
												OFFSET -0.000000 2.842763 0.000000
												CHANNELS 3 Zrotation Yrotation Xrotation
												JOINT RightHandPinky4
												{
													OFFSET -0.000000 2.639709 0.000000
													CHANNELS 3 Zrotation Yrotation Xrotation
													End Site
													{
														OFFSET 0.000000 0.000000 0.000000
													}
												}
											}
										}
									}
									JOINT RightForeArmEnd
									{
										OFFSET 0.000000 0.000000 0.000000
										CHANNELS 3 Zrotation Yrotation Xrotation
										End Site
										{
											OFFSET 0.000000 0.000000 0.000000
										}
									}
								}
								JOINT RightArmEnd
								{
									OFFSET 0.000000 0.000000 0.000000
									CHANNELS 3 Zrotation Yrotation Xrotation
									End Site
									{
										OFFSET 0.000000 0.000000 0.000000
									}
								}
							}
						}
					}
					JOINT LeftShoulder
					{
						OFFSET 2.625389 11.175210 0.000000
						CHANNELS 3 Zrotation Yrotation Xrotation
						JOINT LeftArm
						{
							OFFSET 0.000000 10.813635 -0.000000
							CHANNELS 3 Zrotation Yrotation Xrotation
							JOINT LeftForeArm
							{
								OFFSET 0.000000 28.724781 0.000000
								CHANNELS 3 Zrotation Yrotation Xrotation
								JOINT LeftHand
								{
									OFFSET 0.644384 25.716167 -0.328871
									CHANNELS 3 Zrotation Yrotation Xrotation
									JOINT LeftHandThumb1
									{
										OFFSET 2.867323 3.959563 2.944291
										CHANNELS 3 Zrotation Yrotation Xrotation
										JOINT LeftHandThumb2
										{
											OFFSET 0.000000 3.350399 0.000000
											CHANNELS 3 Zrotation Yrotation Xrotation
											JOINT LeftHandThumb3
											{
												OFFSET -0.000000 3.756509 0.000000
												CHANNELS 3 Zrotation Yrotation Xrotation
												JOINT LeftHandThumb4
												{
													OFFSET -0.000000 3.100000 0.000000
													CHANNELS 3 Zrotation Yrotation Xrotation
													End Site
													{
														OFFSET 0.000000 0.000000 0.000000
													}
												}
											}
										}
									}
									JOINT LeftHandIndex1
									{
										OFFSET 0.086752 10.030893 2.345280
										CHANNELS 3 Zrotation Yrotation Xrotation
										JOINT LeftHandIndex2
										{
											OFFSET -0.000000 4.061090 -0.000000
											CHANNELS 3 Zrotation Yrotation Xrotation
											JOINT LeftHandIndex3
											{
												OFFSET 0.000000 3.248873 -0.000000
												CHANNELS 3 Zrotation Yrotation Xrotation
												JOINT LeftHandIndex4
												{
													OFFSET 0.000000 2.639709 -0.000000
													CHANNELS 3 Zrotation Yrotation Xrotation
													End Site
													{
														OFFSET 0.000000 0.000000 0.000000
													}
												}
											}
										}
									}
									JOINT LeftHandMiddle1
									{
										OFFSET -0.104102 9.502952 0.006768
										CHANNELS 3 Zrotation Yrotation Xrotation
										JOINT LeftHandMiddle2
										{
											OFFSET -0.000000 4.568727 -0.000000
											CHANNELS 3 Zrotation Yrotation Xrotation
											JOINT LeftHandMiddle3
											{
												OFFSET 0.000000 3.654981 0.000000
												CHANNELS 3 Zrotation Yrotation Xrotation
												JOINT LeftHandMiddle4
												{
													OFFSET 0.000000 2.741236 -0.000000
													CHANNELS 3 Zrotation Yrotation Xrotation
													End Site
													{
														OFFSET 0.000000 0.000000 0.000000
													}
												}
											}
										}
									}
									JOINT LeftHandRing1
									{
										OFFSET -0.086752 8.921708 -2.267442
										CHANNELS 3 Zrotation Yrotation Xrotation
										JOINT LeftHandRing2
										{
											OFFSET 0.000000 4.061090 0.000000
											CHANNELS 3 Zrotation Yrotation Xrotation
											JOINT LeftHandRing3
											{
												OFFSET 0.000000 3.654981 0.000000
												CHANNELS 3 Zrotation Yrotation Xrotation
												JOINT LeftHandRing4
												{
													OFFSET 0.000000 2.741236 0.000000
													CHANNELS 3 Zrotation Yrotation Xrotation
													End Site
													{
														OFFSET 0.000000 0.000000 0.000000
													}
												}
											}
										}
									}
									JOINT LeftHandPinky1
									{
										OFFSET 0.173504 7.976997 -4.467199
										CHANNELS 3 Zrotation Yrotation Xrotation
										JOINT LeftHandPinky2
										{
											OFFSET -0.000000 3.350399 -0.000000
											CHANNELS 3 Zrotation Yrotation Xrotation
											JOINT LeftHandPinky3
											{
												OFFSET 0.000000 2.842763 0.000000
												CHANNELS 3 Zrotation Yrotation Xrotation
												JOINT LeftHandPinky4
												{
													OFFSET -0.000000 2.639709 -0.000000
													CHANNELS 3 Zrotation Yrotation Xrotation
													End Site
													{
														OFFSET 0.000000 0.000000 0.000000
													}
												}
											}
										}
									}
									JOINT LeftForeArmEnd
									{
										OFFSET 0.000000 0.000000 0.000000
										CHANNELS 3 Zrotation Yrotation Xrotation
										End Site
										{
											OFFSET 0.000000 0.000000 0.000000
										}
									}
								}
								JOINT LeftArmEnd
								{
									OFFSET 0.000000 0.000000 0.000000
									CHANNELS 3 Zrotation Yrotation Xrotation
									End Site
									{
										OFFSET 0.000000 0.000000 0.000000
									}
								}
							}
						}
					}
				}
			}
		}
	}
	JOINT RightUpLeg
	{
		OFFSET -11.289943 0.000000 0.000000
		CHANNELS 3 Zrotation Yrotation Xrotation
		JOINT RightLeg
		{
			OFFSET 0.000000 -38.200325 0.000000
			CHANNELS 3 Zrotation Yrotation Xrotation
			JOINT RightFoot
			{
				OFFSET -0.000000 -39.900856 -0.000000
				CHANNELS 3 Zrotation Yrotation Xrotation
				JOINT RightToeBase
				{
					OFFSET 0.000000 0.000000 15.261641
					CHANNELS 3 Zrotation Yrotation Xrotation
					JOINT RightToeBaseEnd
					{
						OFFSET 0.000000 0.000000 7.370709
						CHANNELS 3 Zrotation Yrotation Xrotation
						End Site
						{
							OFFSET 0.000000 0.000000 0.000000
						}
					}
				}
				JOINT RightLegEnd
				{
					OFFSET 0.000000 0.000000 0.000000
					CHANNELS 3 Zrotation Yrotation Xrotation
					End Site
					{
						OFFSET 0.000000 0.000000 0.000000
					}
				}
			}
			JOINT RightUpLegEnd
			{
				OFFSET 0.000000 0.000000 0.000000
				CHANNELS 3 Zrotation Yrotation Xrotation
				End Site
				{
					OFFSET 0.000000 0.000000 0.000000
				}
			}
		}
	}
	JOINT LeftUpLeg
	{
		OFFSET 11.315661 -0.000000 0.000000
		CHANNELS 3 Zrotation Yrotation Xrotation
		JOINT LeftLeg
		{
			OFFSET -0.000000 -38.200325 -0.000000
			CHANNELS 3 Zrotation Yrotation Xrotation
			JOINT LeftFoot
			{
				OFFSET 0.000000 -39.900856 -0.000000
				CHANNELS 3 Zrotation Yrotation Xrotation
				JOINT LeftToeBase
				{
					OFFSET -0.000000 -0.000000 15.261641
					CHANNELS 3 Zrotation Yrotation Xrotation
					JOINT LeftToeBaseEnd
					{
						OFFSET 0.000000 -0.000000 7.539996
						CHANNELS 3 Zrotation Yrotation Xrotation
						End Site
						{
							OFFSET 0.000000 0.000000 0.000000
						}
					}
				}
				JOINT LeftLegEnd
				{
					OFFSET 0.000000 0.000000 0.000000
					CHANNELS 3 Zrotation Yrotation Xrotation
					End Site
					{
						OFFSET 0.000000 0.000000 0.000000
					}
				}
			}
			JOINT LeftUpLegEnd
			{
				OFFSET 0.000000 0.000000 0.000000
				CHANNELS 3 Zrotation Yrotation Xrotation
				End Site
				{
					OFFSET 0.000000 0.000000 0.000000
				}
			}
		}
	}
}
MOTION
Frames: 4
Frame Time: 0.016667
0.357653 88.916519 3.131063 0.145677 -1.257971 -12.029449 1.124671 0.338788 7.212101 -0.453319 0.495002 2.504583 -0.154071 0.954885 5.792555 -1.808091 0.877397 5.192765 -1.050420 0.658102 5.137952 0.210432 -0.268874 -3.177909 -0.335279 -1.344638 -20.503807 0.000000 0.000000 0.000000 91.316711 -0.045522 10.250511 67.352829 -21.494316 4.047081 0.111184 20.043060 40.738884 -1.311715 19.757225 -5.945683 19.541483 30.168810 62.340088 -8.261273 -11.720999 -19.735922 -6.096978 -7.612021 -13.630562 0.000000 0.000000 0.000000 9.602547 -10.534795 4.681601 8.075177 0.266259 1.603660 7.859632 -0.178019 1.585937 0.000000 0.000000 0.000000 9.593947 -5.085279 2.567752 7.091528 0.413338 0.624187 7.717574 -0.082050 0.549334 0.000000 0.000000 0.000000 11.740050 2.437428 1.147377 8.657148 -0.855631 -0.963765 8.858644 0.108971 -0.702471 0.000000 0.000000 0.000000 11.803703 10.987847 -1.265337 9.593297 -1.565278 -2.739172 9.426487 0.355275 -2.276283 0.000000 0.000000 0.000000 0.000000 0.000000 0.000000 0.000000 0.000000 0.000000 -88.606430 0.451643 3.498092 -72.969223 3.806034 -8.515815 -0.026027 -18.623121 80.771362 -6.586227 -26.129211 -1.308970 -22.868917 -29.506378 59.398846 10.624653 18.230591 -29.030075 8.358687 12.116376 -20.352354 0.000000 0.000000 0.000000 -37.185741 -2.733670 2.641460 -25.384254 0.072040 -1.766446 -25.297064 -0.436919 -1.663700 0.000000 0.000000 0.000000 -37.478840 2.630898 1.370724 -25.622725 0.291985 -0.832206 -25.778763 -0.184818 -0.670837 0.000000 0.000000 0.000000 -43.109653 11.141576 -0.167356 -29.445213 -0.640206 1.325374 -29.547823 0.262929 1.024913 0.000000 0.000000 0.000000 -45.821507 19.356136 -2.121634 -30.942471 -0.847012 4.361790 -30.660812 1.016510 3.709039 0.000000 0.000000 0.000000 0.000000 0.000000 0.000000 0.000000 0.000000 0.000000 -1.809145 -9.292598 16.248260 -0.086309 -0.745585 4.808796 -2.491801 -6.507454 17.463764 -0.970646 0.820808 -18.600693 0.000000 0.000000 0.000000 0.000000 0.000000 0.000000 0.000000 0.000000 0.000000 -1.977140 -5.814847 11.039707 0.053124 0.265677 10.116168 4.137658 -1.271219 16.459387 0.153629 -0.383276 -20.739574 0.000000 0.000000 0.000000 0.000000 0.000000 0.000000 0.000000 0.000000 0.000000 
0.351664 88.906792 3.146518 0.144231 -1.239768 -12.080278 1.146652 0.335336 7.237816 -0.436679 0.492680 2.492849 -0.206671 0.988230 5.862081 -1.832785 0.884724 5.176278 -1.061571 0.612664 5.205636 0.220333 -0.294493 -3.151498 -0.336184 -1.356248 -20.513933 0.000000 0.000000 0.000000 91.289284 -0.031003 10.326453 67.288521 -21.664923 4.326628 0.107561 20.046034 40.491283 -1.033735 19.745024 -6.135857 19.575512 30.157387 62.309669 -8.299632 -11.788242 -19.829460 -6.127401 -7.654973 -13.699749 0.000000 0.000000 0.000000 9.996270 -10.589725 4.442866 8.312531 0.277312 1.573270 8.099110 -0.165569 1.557057 0.000000 0.000000 0.000000 9.936737 -5.143486 2.375036 7.318280 0.417782 0.612093 7.943734 -0.078000 0.537862 0.000000 0.000000 0.000000 12.037906 2.380828 1.015952 8.865975 -0.863241 -0.953342 9.066267 0.103322 -0.692884 0.000000 0.000000 0.000000 12.027780 10.932726 -1.337375 9.771009 -1.579146 -2.719970 9.603136 0.343398 -2.260325 0.000000 0.000000 0.000000 0.000000 0.000000 0.000000 0.000000 0.000000 0.000000 -88.651993 0.439431 3.552316 -72.923599 4.058022 -8.418169 -0.004546 -18.525879 80.508018 -6.989724 -25.260418 -1.896984 -22.644838 -29.538530 59.571316 10.513284 17.787010 -28.428415 8.231436 11.827488 -19.930573 0.000000 0.000000 0.000000 -35.755390 -2.901909 2.855868 -24.351166 0.101383 -1.707644 -24.264761 -0.407005 -1.607826 0.000000 0.000000 0.000000 -36.074532 2.447011 1.399226 -24.601381 0.305773 -0.807864 -24.766937 -0.173123 -0.650013 0.000000 0.000000 0.000000 -41.776100 10.957942 -0.323511 -28.468687 -0.660478 1.297304 -28.566643 0.248692 1.001864 0.000000 0.000000 0.000000 -44.633720 19.207066 -2.508307 -30.055840 -0.899828 4.285243 -29.758968 0.972601 3.645222 0.000000 0.000000 0.000000 0.000000 0.000000 0.000000 0.000000 0.000000 0.000000 -1.812677 -9.344069 16.308237 -0.086452 -0.744516 4.841312 -2.509336 -6.479163 17.397467 -0.968454 0.822599 -18.576460 0.000000 0.000000 0.000000 0.000000 0.000000 0.000000 0.000000 0.000000 0.000000 -1.961462 -5.864382 11.066278 0.053995 0.267365 10.203226 4.121724 -1.306412 16.410501 0.150310 -0.384126 -20.739632 0.000000 0.000000 0.000000 0.000000 0.000000 0.000000 0.000000 0.000000 0.000000 
0.344467 88.897087 3.159355 0.142531 -1.217510 -12.122743 1.166656 0.333205 7.267687 -0.416992 0.490861 2.490292 -0.271109 1.029348 5.928352 -1.858701 0.893082 5.154687 -1.041851 0.545534 5.245316 0.229541 -0.333505 -3.133800 -0.331976 -1.365153 -20.514790 0.000000 0.000000 0.000000 91.256470 -0.015052 10.410793 67.255302 -21.795218 4.538198 0.102807 20.041462 40.233284 -0.671878 19.721283 -6.309161 19.613413 30.145113 62.274948 -8.340454 -11.862150 -19.934593 -6.160520 -7.703093 -13.776477 0.000000 0.000000 0.000000 10.416933 -10.651520 4.176996 8.576800 0.289192 1.540242 8.366201 -0.152191 1.525768 0.000000 0.000000 0.000000 10.306075 -5.208031 2.156855 7.574654 0.422376 0.598952 8.199295 -0.073732 0.525329 0.000000 0.000000 0.000000 12.360422 2.320814 0.856287 9.109376 -0.871396 -0.941558 9.308544 0.097243 -0.682223 0.000000 0.000000 0.000000 12.275105 10.876173 -1.444791 9.984540 -1.594217 -2.697464 9.814797 0.330566 -2.241712 0.000000 0.000000 0.000000 0.000000 0.000000 0.000000 0.000000 0.000000 0.000000 -88.693710 0.422675 3.614629 -72.867378 4.351486 -8.334773 0.029248 -18.403931 80.354889 -7.497869 -24.241409 -2.453017 -22.366526 -29.580656 59.787933 10.366321 17.235746 -27.678425 8.069422 11.468608 -19.404779 0.000000 0.000000 0.000000 -33.976627 -3.120235 3.133078 -23.058340 0.135789 -1.636830 -22.973257 -0.371671 -1.541100 0.000000 0.000000 0.000000 -34.324821 2.210650 1.453230 -23.327436 0.321943 -0.778503 -23.501062 -0.159174 -0.625119 0.000000 0.000000 0.000000 -40.101601 10.724565 -0.501916 -27.245762 -0.684540 1.262983 -27.339535 0.231665 0.973869 0.000000 0.000000 0.000000 -43.137478 19.018467 -2.971532 -28.947159 -0.962364 4.191175 -28.636026 0.920423 3.565836 0.000000 0.000000 0.000000 0.000000 0.000000 0.000000 0.000000 0.000000 0.000000 -1.813081 -9.393414 16.356728 -0.086550 -0.742940 4.875041 -2.521793 -6.465841 17.336670 -0.965410 0.824987 -18.556503 0.000000 0.000000 0.000000 0.000000 0.000000 0.000000 0.000000 0.000000 0.000000 -1.944511 -5.916348 11.077528 0.054808 0.268891 10.295826 4.104206 -1.343010 16.365669 0.147380 -0.385305 -20.742773 0.000000 0.000000 0.000000 0.000000 0.000000 0.000000 0.000000 0.000000 0.000000 
0.334996 88.887642 3.170357 0.139272 -1.191843 -12.156869 1.184358 0.332057 7.300101 -0.397844 0.490050 2.496107 -0.340657 1.074394 5.987666 -1.883937 0.902183 5.131261 -0.999856 0.466080 5.260830 0.238286 -0.378704 -3.122935 -0.324282 -1.371332 -20.505882 0.000000 0.000000 0.000000 91.218605 0.002639 10.499741 67.262794 -21.875793 4.666201 0.096976 20.025894 40.009941 -0.227413 19.691994 -6.449237 19.652405 30.133020 62.239090 -8.380460 -11.936544 -20.042868 -6.193693 -7.752513 -13.854122 0.000000 0.000000 0.000000 10.840943 -10.716437 3.911527 8.853390 0.300412 1.509513 8.645998 -0.139435 1.496897 0.000000 0.000000 0.000000 10.679904 -5.274856 1.933743 7.845769 0.426489 0.586674 8.469921 -0.069797 0.513489 0.000000 0.000000 0.000000 12.690035 2.260700 0.678358 9.374698 -0.879039 -0.930671 9.572252 0.091469 -0.672308 0.000000 0.000000 0.000000 12.532885 10.820382 -1.585800 10.221815 -1.608322 -2.677259 10.049584 0.318448 -2.225128 0.000000 0.000000 0.000000 0.000000 0.000000 0.000000 0.000000 0.000000 0.000000 -88.730667 0.402942 3.680404 -72.812500 4.670439 -8.276464 0.073142 -18.260975 80.339539 -8.091017 -23.111694 -2.932623 -22.050823 -29.630978 60.036507 10.189714 16.611019 -26.825743 7.880924 11.061786 -18.806387 0.000000 0.000000 0.000000 -31.961618 -3.377430 3.480942 -21.588394 0.172418 -1.559337 -21.505436 -0.333734 -1.468518 0.000000 0.000000 0.000000 -32.337715 1.934451 1.546137 -21.879631 0.339173 -0.746371 -22.060022 -0.144102 -0.598062 0.000000 0.000000 0.000000 -38.180050 10.452358 -0.687933 -25.846540 -0.710389 1.224942 -25.936678 0.213226 0.943041 0.000000 0.000000 0.000000 -41.413609 18.798508 -3.490566 -27.676512 -1.029823 4.086779 -27.352985 0.863974 3.476912 0.000000 0.000000 0.000000 0.000000 0.000000 0.000000 0.000000 0.000000 0.000000 -1.807564 -9.439126 16.396200 -0.086626 -0.741058 4.905353 -2.530193 -6.464760 17.281971 -0.961425 0.828175 -18.539612 0.000000 0.000000 0.000000 0.000000 0.000000 0.000000 0.000000 0.000000 0.000000 -1.923759 -5.969977 11.074965 0.055609 0.270297 10.392776 4.083639 -1.380465 16.322842 0.144952 -0.387045 -20.747538 0.000000 0.000000 0.000000 0.000000 0.000000 0.000000 0.000000 0.000000 0.000000 
